<svg width="24" height="24" viewBox="0 0 24 24" fill="none" xmlns="http://www.w3.org/2000/svg">
<g clip-path="url(#clip0_140_3677)">
<path fill-rule="evenodd" clip-rule="evenodd" d="M10.0792 9.35938C9.50163 9.35938 9.03345 9.82756 9.03345 10.4051V22.9541C9.03345 23.5317 9.50163 23.9999 10.0792 23.9999H22.9543C23.5319 23.9999 24 23.5317 24 22.9541V10.4051C24 9.82756 23.5319 9.35938 22.9543 9.35938H10.0792ZM11.5457 18.3006L12.7751 17.7254V21.6992H13.7907V13.3855H15.0201V12.1829H15.9822V10.9803H16.8375V12.1829H17.7996V13.3855H19.0824V21.6992H20.0446V17.7254L21.274 18.3006V21.6992H21.9154V22.3267H10.9042V21.6992H11.5457V18.3006ZM14.6994 14.9541H15.9822V16.209H14.6994V14.9541ZM18.1737 14.9541H16.8909V16.209H18.1737V14.9541ZM16.8909 17.0979H18.1737V18.3528H16.8909V17.0979ZM18.1737 19.2417H16.8909V20.4966H18.1737V19.2417ZM14.6994 17.0979H15.9822V18.3528H14.6994V17.0979ZM15.9822 19.2417H14.6994V20.4966H15.9822V19.2417Z" fill="#353E4A"/>
<path fill-rule="evenodd" clip-rule="evenodd" d="M1.04575 0C0.468199 0 0 0.468199 0 1.04575V13.5948C0 14.1723 0.468198 14.6405 1.04575 14.6405H13.9208C14.4984 14.6405 14.9666 14.1723 14.9666 13.5948V1.04575C14.9666 0.468199 14.4984 0 13.9208 0H1.04575ZM3.04677 5.9085V6.87582H3.6882V10.5098H3.34076V10.8235H3.04677V11.1634H2.72606V11.4248H2.40534V11.7386H7.32293H12.5613V11.4744H12.2372V11.2106H11.8592V10.8677H11.5892V10.5512H11.2382V6.8845H11.8592V5.9085H7.32293H3.04677ZM6.52115 8.73203H7.32293H8.18698V10.5098H7.32293H6.52115V8.73203ZM7.48146 2.88927C7.46593 2.88088 7.44722 2.88088 7.43169 2.88927L2.70828 5.44418C2.66055 5.47001 2.67889 5.54248 2.73316 5.54248H12.18C12.2342 5.54248 12.2526 5.47001 12.2049 5.44418L7.48146 2.88927Z" fill="#AEAEAE"/>
<path d="M5.13137 6.79736H4.7572V10.5098H5.13137V6.79736Z" fill="#AEAEAE"/>
<path d="M6.04006 6.79736H5.66589V10.5098H6.04006V6.79736Z" fill="#AEAEAE"/>
<path d="M9.94216 6.84961H9.56799V10.562H9.94216V6.84961Z" fill="#AEAEAE"/>
<path d="M9.03347 6.84961H8.6593V10.562H9.03347V6.84961Z" fill="#AEAEAE"/>
<path d="M9.35945 17.3071H6.79736V19.5555H9.35945V17.3071Z" fill="#AEAEAE"/>
<path d="M5.66592 12.1831L7.8416 14.4968H3.49023L5.66592 12.1831Z" fill="#353E4A"/>
<path d="M11.7059 18.4576L9.3407 20.5859V16.3293L11.7059 18.4576Z" fill="#AEAEAE"/>
<path d="M6.78845 19.5555V17.3072V14.4836H4.46326V17.647L6.78845 19.5555Z" fill="#353E4A"/>
</g>
<defs>
<clipPath id="clip0_140_3677">
<rect width="24" height="24" fill="white"/>
</clipPath>
</defs>
</svg>
